<?xml version="1.0" standalone="no"?>
<!DOCTYPE svg PUBLIC "-//W3C//DTD SVG 20010904//EN"
 "http://www.w3.org/TR/2001/REC-SVG-20010904/DTD/svg10.dtd">
<svg version="1.0" xmlns="http://www.w3.org/2000/svg"
 width="1191.000000pt" height="1170.000000pt" viewBox="0 0 1191.000000 1170.000000"
 preserveAspectRatio="xMidYMid meet">
<metadata>
Created by potrace 1.16, written by Peter Selinger 2001-2019
</metadata>
<g transform="translate(0.000000,1170.000000) scale(0.100000,-0.100000)"
fill="#000000" stroke="none">
<path d="M5630 10662 c0 -37 -32 -76 -48 -60 -7 7 -12 18 -12 25 0 23 -15 14
-29 -17 -12 -27 -17 -30 -45 -26 -18 3 -40 8 -49 11 -11 5 -16 0 -19 -17 -4
-28 -35 -37 -40 -11 -3 13 -11 6 -31 -28 -22 -37 -32 -46 -47 -42 -16 4 -19 2
-14 -11 3 -9 3 -24 -1 -33 -6 -16 -8 -15 -26 7 l-19 25 -6 -22 c-4 -14 -14
-23 -25 -23 -11 0 -19 -5 -19 -11 0 -5 -5 -7 -10 -4 -6 3 -13 -1 -16 -9 -3 -9
-16 -16 -29 -16 -19 0 -22 -4 -18 -21 5 -18 3 -20 -17 -14 -20 6 -22 4 -17
-14 6 -25 -11 -40 -24 -20 -8 12 -11 12 -19 -1 -5 -8 -10 -21 -10 -28 0 -8 -7
-11 -18 -8 -13 4 -23 -1 -32 -18 -7 -14 -17 -24 -22 -23 -6 1 -15 -7 -21 -18
-7 -11 -13 -22 -14 -24 -2 -2 -10 2 -19 10 -16 13 -17 12 -12 -7 4 -16 1 -21
-11 -19 -19 3 -51 -23 -51 -41 0 -9 -10 -13 -27 -12 -14 2 -28 -3 -31 -10 -2
-7 -10 -19 -18 -26 -8 -8 -14 -19 -14 -25 0 -6 -9 -11 -20 -11 -11 0 -20 -6
-20 -13 0 -7 -15 -19 -34 -27 -37 -14 -54 -47 -30 -57 9 -3 27 5 42 19 43 40
136 96 184 109 24 7 47 19 51 26 6 10 13 10 28 2 17 -9 28 -6 61 17 l40 28 17
-23 c16 -21 19 -22 25 -6 3 10 9 15 13 12 8 -9 45 12 38 23 -13 21 17 19 34
-2 20 -24 30 -22 36 9 2 10 4 20 4 23 1 3 10 -6 20 -19 21 -28 41 -21 41 15 0
13 5 24 10 24 6 0 10 -9 10 -19 0 -11 5 -23 10 -26 6 -3 10 -1 10 6 0 10 3 10
12 1 16 -16 29 -15 23 1 -6 15 14 41 38 50 16 6 18 3 12 -23 -5 -23 -3 -30 9
-30 9 0 16 5 16 11 0 5 5 7 10 4 6 -4 8 -11 5 -16 -10 -16 9 -9 34 12 20 16
22 23 13 43 -5 12 -7 29 -2 36 6 9 10 7 15 -9 8 -28 31 -21 28 8 -2 11 1 21 6
21 15 0 33 -29 25 -41 -4 -7 -3 -9 4 -5 6 3 13 2 17 -4 9 -15 35 -12 35 4 0
12 6 12 29 3 16 -6 27 -16 24 -23 -7 -18 37 -29 48 -13 6 10 11 11 19 3 9 -9
19 -9 41 -1 26 10 28 15 23 44 -8 44 9 42 26 -2 13 -33 34 -46 42 -26 2 4 13
12 26 15 16 6 22 3 22 -8 0 -9 -4 -16 -10 -16 -5 0 -10 -10 -10 -22 1 -22 1
-22 15 -4 11 14 21 17 42 11 15 -3 31 -11 34 -16 3 -6 20 3 37 20 36 36 52 39
52 10 0 -19 4 -21 35 -16 19 3 37 2 39 -2 3 -4 19 -8 36 -9 17 0 37 -5 43 -10
21 -17 85 -8 101 13 15 20 15 20 10 -1 -5 -20 -1 -22 43 -28 26 -3 77 -7 113
-9 36 -2 76 -9 90 -14 14 -6 28 -10 31 -9 4 0 16 -8 28 -18 16 -15 24 -17 33
-8 19 19 107 -11 138 -49 3 -3 25 -13 50 -21 25 -8 45 -21 45 -29 0 -9 11 -14
33 -13 17 1 32 -2 32 -7 0 -5 -6 -9 -12 -10 -7 0 7 -9 32 -20 l45 -19 -43 3
c-35 2 -41 0 -36 -13 15 -33 16 -80 3 -81 -8 0 -4 -4 9 -9 13 -6 22 -18 22
-30 0 -12 9 -24 23 -30 13 -5 16 -9 7 -10 -11 0 -8 -6 8 -18 21 -16 22 -21 11
-45 -7 -15 -18 -27 -26 -27 -7 0 -13 -4 -13 -10 0 -5 7 -10 15 -10 8 0 15 -6
15 -14 0 -8 7 -17 16 -20 9 -4 14 -9 11 -13 -4 -3 -2 -12 5 -20 15 -19 19 -63
5 -63 -6 0 -3 -6 8 -13 10 -8 15 -19 11 -26 -4 -6 2 -24 13 -40 12 -16 21 -36
21 -44 0 -9 9 -19 20 -22 11 -3 20 -15 20 -25 0 -10 7 -26 16 -35 10 -9 14
-26 12 -40 -3 -14 0 -26 8 -29 9 -3 14 -21 14 -44 0 -23 6 -45 15 -52 9 -8 13
-21 10 -34 -5 -15 -4 -17 3 -8 13 19 23 -8 15 -38 -4 -16 -8 -18 -14 -8 -17
26 -10 -17 9 -53 22 -43 26 -80 25 -239 -1 -163 -1 -156 -27 -185 -13 -14 -26
-43 -30 -65 -3 -22 -10 -40 -15 -40 -13 0 -19 -101 -8 -123 5 -10 6 -21 4 -23
-8 -9 -71 22 -91 45 -11 12 -31 21 -47 21 -15 0 -29 4 -31 8 -5 14 -139 72
-164 72 -15 0 -24 -6 -24 -15 0 -15 -19 -14 -68 1 -17 5 -52 -17 -52 -34 0 -9
-5 -10 -19 -2 -11 5 -36 10 -55 10 -28 0 -34 -3 -30 -15 5 -12 -1 -15 -22 -15
-16 0 -63 -6 -104 -14 -41 -8 -92 -13 -113 -11 -28 3 -39 -1 -47 -15 -6 -11
-17 -17 -24 -14 -8 3 -16 -2 -18 -12 -3 -16 -77 -43 -124 -44 -11 0 -29 -9
-39 -20 -17 -19 -17 -20 1 -20 16 -1 13 -6 -13 -29 -18 -15 -33 -37 -33 -49 0
-11 -5 -24 -10 -27 -6 -4 -8 -16 -4 -27 4 -12 0 -24 -11 -32 -14 -10 -15 -16
-6 -34 9 -18 9 -22 -2 -22 -7 0 -19 -12 -26 -27 -8 -16 -17 -35 -22 -43 -5 -8
-15 -26 -22 -40 -7 -14 -20 -37 -30 -51 -21 -31 -30 -195 -15 -279 5 -30 11
-64 13 -75 1 -11 8 -19 14 -17 6 1 11 -11 11 -29 0 -16 4 -28 9 -25 13 8 24
-45 12 -57 -6 -6 -11 -35 -11 -65 0 -58 -17 -139 -34 -161 -8 -10 -5 -17 9
-27 14 -10 18 -24 17 -50 -3 -45 14 -100 33 -108 8 -3 15 -17 15 -31 0 -26 17
-65 35 -77 5 -4 11 -43 13 -88 l4 -80 -40 -36 c-23 -19 -63 -47 -91 -60 -51
-26 -101 -74 -101 -99 0 -22 -80 -37 -135 -25 -17 4 -39 4 -50 0 -11 -4 -29
-3 -40 2 -29 15 -75 60 -75 74 0 13 -69 44 -97 44 -9 0 -24 -7 -32 -15 -9 -8
-33 -15 -54 -17 -46 -3 -47 -18 -5 -67 37 -43 83 -70 121 -71 20 0 30 -7 37
-24 7 -18 19 -26 45 -30 19 -4 51 -8 71 -12 19 -3 37 -11 40 -19 3 -7 25 -18
49 -24 34 -8 48 -19 60 -41 18 -35 35 -39 42 -10 3 12 17 23 32 26 14 3 44 9
66 14 29 7 52 5 81 -5 42 -14 98 -10 73 6 -8 5 -1 11 22 17 42 11 45 10 53
-29 4 -24 2 -35 -11 -45 -16 -12 -16 -15 -3 -24 8 -5 25 -10 38 -10 12 0 22
-4 22 -9 0 -5 9 -13 21 -16 14 -5 26 0 42 19 29 33 39 33 35 -1 -2 -20 2 -29
15 -31 29 -6 66 7 88 29 20 20 21 20 34 2 16 -21 11 -33 -16 -33 -23 0 -25
-13 -4 -30 14 -12 14 -15 0 -30 -23 -26 -190 -70 -264 -70 -12 0 -45 -13 -74
-29 -55 -30 -111 -44 -164 -42 -18 0 -33 -4 -33 -9 0 -13 -43 -13 -57 1 -8 8
-13 8 -17 0 -9 -14 -66 -14 -66 0 0 7 -11 8 -31 4 -22 -5 -29 -4 -25 4 8 12
-24 15 -62 4 -18 -4 -21 -8 -10 -15 9 -6 6 -7 -9 -3 -33 9 -130 6 -203 -6 -36
-6 -96 -12 -133 -14 -64 -2 -70 -4 -108 -40 l-40 -38 28 -17 c15 -9 46 -19 68
-23 27 -4 46 -16 63 -37 13 -16 30 -30 38 -30 8 0 14 -4 14 -9 0 -10 85 -75
101 -77 5 -1 17 -2 27 -3 13 -1 14 -3 3 -10 -7 -5 -11 -13 -7 -19 7 -11 46 -4
46 8 0 4 9 10 20 13 15 4 20 0 21 -16 1 -20 2 -20 8 3 5 17 9 21 15 12 4 -7
11 -10 16 -7 5 3 19 1 31 -5 15 -9 33 -8 70 1 55 14 65 29 19 29 -17 0 -33 6
-36 14 -4 11 -21 14 -63 13 -34 -1 -69 4 -84 12 -19 10 -33 11 -57 3 -29 -11
-31 -10 -47 23 -9 19 -25 35 -36 37 -26 4 -60 49 -52 70 4 11 15 15 31 12 17
-3 31 2 42 15 23 26 68 35 84 17 11 -12 16 -12 31 2 21 18 87 18 119 -1 16 -9
22 -9 25 1 7 20 197 17 214 -4 12 -15 15 -14 30 5 15 18 86 46 166 64 14 3 33
-3 49 -16 23 -18 28 -19 38 -6 18 25 59 49 82 49 12 0 33 -9 47 -20 l25 -20 6
25 c6 23 11 25 44 21 20 -3 40 -5 44 -5 18 -2 38 -36 38 -66 0 -76 -42 -118
-87 -88 -19 13 -23 12 -32 -5 -6 -11 -36 -30 -67 -42 -45 -19 -60 -21 -75 -12
-15 10 -21 7 -34 -16 -26 -43 -68 -62 -136 -62 -33 0 -69 5 -80 11 -16 8 -25
7 -38 -5 -10 -9 -30 -16 -44 -16 -15 0 -27 -4 -27 -9 0 -11 107 -19 124 -9 8
4 40 10 72 14 33 4 74 13 92 22 25 11 39 12 57 4 13 -6 36 -8 52 -4 46 12 83
4 83 -19 0 -10 6 -19 13 -19 9 0 8 -3 -2 -9 -7 -5 -11 -13 -7 -19 7 -12 -18
-35 -27 -25 -4 3 -7 -3 -7 -15 0 -12 5 -22 10 -22 12 0 48 19 72 38 19 16 12
46 -8 38 -8 -3 -14 -1 -14 4 0 6 4 10 8 10 5 0 17 18 28 40 21 44 43 58 56 35
5 -8 13 -15 18 -15 15 0 12 26 -5 40 -21 17 -19 30 5 30 13 0 20 7 20 20 0 13
7 20 19 20 10 0 22 7 25 16 3 8 10 13 15 10 5 -3 39 28 76 69 37 41 76 75 85
75 10 0 23 7 30 15 14 16 2 32 -38 54 -14 7 -21 18 -18 27 3 8 0 14 -7 14 -7
0 -23 9 -36 19 -23 18 -23 19 -8 51 18 35 15 50 -9 50 -8 0 -20 11 -26 25 -6
14 -15 25 -20 25 -4 0 -8 9 -8 20 0 24 -13 25 -45 4 -23 -15 -25 -15 -25 0 0
9 -9 21 -20 28 -11 7 -20 20 -20 30 0 10 -7 16 -19 15 -16 -1 -18 -5 -9 -22 6
-11 7 -17 3 -13 -5 4 -14 3 -21 -3 -15 -12 -23 -1 -26 34 -2 18 -7 23 -20 19
-10 -2 -15 -9 -12 -14 3 -5 -4 -17 -15 -27 -18 -15 -26 -17 -45 -8 -13 6 -21
17 -19 24 6 16 19 17 28 3 9 -14 77 61 71 77 -3 7 0 13 7 13 36 0 62 175 38
258 -14 50 -58 134 -76 144 -31 18 -52 85 -60 182 -4 54 -14 114 -22 133 -9
24 -13 55 -9 94 3 43 1 61 -10 70 -10 8 -11 15 -4 24 8 9 8 15 0 20 -17 11
-11 23 15 29 22 6 24 9 14 27 -6 11 -8 23 -5 27 3 3 6 -1 6 -9 0 -7 14 1 30
20 28 30 32 51 9 51 -6 0 -18 -7 -26 -16 -9 -8 -19 -11 -22 -6 -3 5 -15 14
-26 20 -12 6 -27 23 -35 39 -8 15 -22 35 -33 43 -22 19 -13 50 14 50 10 0 19
-4 19 -10 0 -23 161 -43 182 -22 7 7 28 12 47 12 47 0 34 10 -15 11 -38 1 -94
18 -94 29 0 3 14 16 31 30 18 14 46 37 63 51 30 25 69 49 80 49 3 0 6 -15 6
-32 0 -46 18 -104 37 -124 11 -11 26 -14 45 -10 17 3 39 1 50 -5 26 -14 96
-14 146 2 34 10 44 19 56 51 9 21 16 52 16 70 l0 31 29 -31 c41 -42 40 -88 -1
-97 -19 -5 -28 -13 -28 -26 0 -20 -7 -22 -53 -19 -50 3 -43 -63 8 -76 18 -4
28 -16 35 -45 8 -28 19 -42 43 -54 45 -21 91 -4 155 58 28 26 54 47 58 47 5 0
22 11 38 25 17 15 42 25 60 25 40 0 55 10 58 40 2 17 -4 28 -19 34 -15 7 -21
19 -21 38 1 15 -6 36 -14 46 -13 14 -14 26 -5 75 6 31 15 57 20 57 4 0 18 -11
31 -25 13 -14 28 -25 35 -25 6 0 11 -4 11 -10 0 -5 6 -10 14 -10 9 0 12 -7 9
-21 -4 -12 0 -25 8 -30 9 -5 14 -25 13 -56 -1 -65 9 -73 80 -62 64 10 76 7 76
-22 0 -11 7 -22 15 -25 46 -18 114 -182 101 -246 -20 -108 -28 -134 -42 -145
-8 -6 -11 -14 -6 -17 11 -7 -6 -87 -21 -97 -5 -4 -4 -9 2 -14 8 -4 3 -15 -16
-33 -15 -14 -28 -30 -28 -36 -2 -22 -32 -76 -38 -69 -4 3 -7 -5 -7 -20 0 -16
-10 -33 -26 -46 -15 -12 -21 -21 -15 -21 9 0 9 -5 1 -20 -6 -11 -17 -20 -24
-20 -8 0 -13 -14 -14 -35 -1 -19 -6 -44 -12 -54 -13 -26 -13 -68 1 -77 6 -3 9
-20 6 -38 -2 -17 -1 -41 4 -53 5 -14 5 -23 -1 -23 -6 0 -10 -4 -10 -9 0 -6 9
-9 20 -8 11 1 20 5 20 9 0 4 5 8 11 8 7 0 8 -11 3 -32 -4 -18 -8 -72 -9 -120
-1 -48 -5 -91 -8 -95 -10 -9 -9 -68 2 -96 7 -18 5 -26 -10 -35 -11 -7 -24 -24
-29 -37 -11 -30 -40 -33 -47 -5 -7 25 -15 25 -30 1 -17 -26 -46 -149 -38 -161
3 -5 -3 -23 -14 -39 -23 -32 -27 -57 -10 -63 14 -5 -6 -48 -21 -48 -6 0 -10
-11 -10 -25 0 -14 5 -25 10 -25 6 0 10 -9 10 -20 0 -13 -7 -20 -20 -20 -21 0
-27 -14 -11 -24 5 -4 8 -30 6 -59 -3 -52 -16 -64 -38 -34 -5 7 -7 3 -4 -10 3
-13 1 -23 -4 -23 -5 0 -9 -16 -9 -35 0 -24 -5 -35 -14 -35 -8 0 -17 -14 -21
-31 -4 -17 -13 -42 -21 -57 -8 -15 -12 -38 -9 -53 4 -19 -1 -31 -24 -52 -17
-15 -34 -38 -37 -53 -5 -20 -9 -23 -16 -12 -7 9 -8 7 -5 -9 3 -15 0 -23 -9
-23 -10 0 -11 -6 -5 -23 8 -21 5 -25 -30 -40 -22 -10 -37 -22 -34 -27 4 -6 0
-13 -8 -16 -8 -3 -17 -14 -20 -25 -3 -11 -14 -19 -26 -19 -13 0 -26 -12 -36
-34 -10 -20 -23 -33 -33 -32 -11 1 -18 -8 -20 -21 -2 -13 -7 -23 -12 -23 -5 0
-15 -6 -22 -12 -31 -30 -69 -42 -88 -30 -20 12 -50 7 -50 -9 0 -4 -6 -6 -13
-3 -10 3 -18 -13 -27 -53 -15 -62 -56 -113 -90 -113 -11 0 -22 -5 -25 -10 -4
-6 -15 -8 -24 -5 -10 3 -29 -4 -44 -15 -14 -11 -28 -20 -31 -20 -3 0 -15 -9
-26 -20 l-21 -21 -26 21 c-29 23 -43 25 -43 8 0 -7 -4 -19 -9 -27 -8 -12 -12
-12 -26 2 -19 19 -39 13 -31 -9 3 -8 1 -14 -4 -14 -6 0 -10 4 -10 9 0 6 -15 7
-34 4 -19 -3 -36 -1 -40 6 -10 15 -36 14 -36 -2 0 -9 -17 -14 -55 -15 -31 -1
-54 2 -51 7 7 10 -22 51 -36 51 -5 0 -8 -6 -5 -14 3 -7 1 -18 -4 -23 -6 -6 0
-14 16 -23 38 -20 30 -29 -17 -18 -43 9 -58 21 -58 47 0 10 -3 11 -13 2 -8 -6
-17 -8 -20 -4 -4 3 -7 1 -7 -5 0 -6 5 -14 10 -17 22 -14 8 -25 -29 -22 -44 3
-81 30 -81 59 0 10 -7 18 -15 18 -9 0 -12 -6 -9 -15 4 -9 -3 -24 -16 -35 -26
-22 -40 -25 -40 -9 0 8 -4 8 -15 -1 -16 -13 -35 -6 -35 14 0 15 -34 48 -46 44
-5 -1 -20 4 -34 12 -14 7 -27 12 -30 10 -2 -1 -9 5 -15 15 -19 32 -59 75 -71
75 -12 0 -53 50 -53 65 1 12 -41 29 -63 26 -15 -2 -17 3 -12 28 7 35 3 37 -30
15 -29 -18 -41 -6 -32 31 5 18 3 23 -8 19 -8 -3 -16 3 -19 15 -3 12 -13 21
-22 21 -9 0 -14 4 -11 8 2 4 -7 8 -22 7 -20 0 -26 -5 -24 -18 2 -9 -2 -17 -8
-17 -5 0 -10 7 -10 15 0 9 -11 21 -25 27 -14 6 -25 17 -25 25 0 7 -3 12 -7 11
-12 -3 -53 25 -53 36 0 19 -52 76 -69 76 -11 0 -25 13 -33 31 -9 17 -18 30
-22 29 -10 -1 -38 16 -37 23 3 20 0 27 -11 27 -6 0 -20 7 -30 17 -31 28 -20
-3 20 -54 38 -48 72 -111 72 -133 0 -6 4 -9 9 -6 5 3 21 -11 37 -31 15 -20 89
-98 163 -172 75 -75 147 -153 161 -173 15 -23 38 -42 58 -49 18 -6 36 -18 40
-28 3 -9 13 -21 21 -28 14 -11 14 -12 -2 -13 -11 0 -15 -5 -11 -11 4 -6 20 -8
40 -4 27 5 34 3 34 -10 0 -8 5 -15 11 -15 6 0 9 7 5 15 -3 8 12 -4 34 -27 31
-32 43 -39 52 -30 16 16 28 15 28 -1 0 -19 55 -48 76 -40 10 4 15 2 11 -3 -9
-16 62 -39 76 -25 8 8 5 11 -10 11 -12 0 -24 4 -27 9 -3 4 7 7 22 6 39 -3 39
-3 46 -27 3 -13 24 -34 47 -47 36 -20 44 -21 53 -9 26 35 112 25 104 -12 -2
-11 5 -14 25 -13 15 1 27 -1 27 -5 0 -4 14 -13 31 -21 17 -7 34 -24 40 -37 7
-20 13 -23 34 -18 19 5 30 1 39 -11 12 -17 18 -17 67 -5 116 27 207 17 184
-21 -6 -8 -2 -8 13 0 27 14 39 14 24 -1 -7 -7 -12 -16 -12 -20 0 -10 44 -11
53 -1 12 11 110 43 132 42 17 -1 16 -2 -4 -8 -37 -10 -40 -34 -4 -25 15 4 32
10 37 15 5 4 15 5 22 2 8 -3 14 0 14 5 0 6 8 13 18 15 16 4 16 5 0 6 -10 0
-18 6 -18 11 0 14 23 13 38 -2 9 -9 12 -8 12 5 0 9 7 17 15 17 8 0 15 4 15 9
0 5 16 12 35 15 21 4 35 13 35 21 0 8 3 15 8 16 4 0 24 1 45 3 21 2 47 12 60
24 17 16 32 20 69 17 42 -2 47 0 52 21 4 13 13 24 21 24 19 0 28 -17 13 -23
-7 -2 -10 -8 -6 -12 4 -4 14 0 23 8 9 10 11 18 5 22 -16 10 -11 28 6 21 9 -3
25 1 37 9 12 8 28 15 36 15 7 0 20 8 27 17 13 17 15 17 28 -1 8 -10 19 -15 25
-12 10 7 55 -44 46 -52 -3 -3 -15 3 -26 14 -16 14 -21 15 -17 4 2 -8 13 -19
25 -24 16 -8 20 -18 18 -53 -1 -41 0 -43 27 -43 15 0 28 5 28 10 0 6 -5 10
-11 10 -5 0 -7 5 -4 10 10 16 35 -8 35 -31 0 -11 5 -19 10 -19 6 0 10 -7 10
-15 0 -8 -4 -15 -10 -15 -5 0 -10 7 -10 15 0 26 -17 16 -23 -13 -3 -16 0 -33
8 -42 15 -16 7 -38 -27 -74 -10 -11 -18 -30 -18 -43 0 -25 15 -31 24 -10 3 6
3 -4 0 -23 -8 -43 -25 -70 -43 -70 -11 0 -12 -3 -4 -11 17 -17 71 10 86 43 8
19 19 28 34 28 13 0 23 -4 23 -10 0 -5 9 -10 19 -10 17 0 19 -5 14 -33 -4 -27
-1 -35 20 -46 18 -9 23 -19 20 -35 -4 -20 -4 -20 16 3 12 13 24 35 27 50 3 14
10 36 15 49 5 13 9 35 9 50 0 19 3 23 9 14 6 -10 10 -7 15 12 3 14 11 26 16
26 6 0 10 7 10 15 0 8 9 15 19 15 11 0 23 5 27 12 5 7 10 4 15 -11 7 -19 11
-20 29 -9 18 12 19 13 2 20 -16 6 -16 7 1 7 10 1 17 9 17 21 0 25 20 26 27 1
4 -17 27 -30 58 -35 6 0 10 -8 10 -16 1 -8 9 -32 19 -52 10 -20 15 -41 12 -46
-3 -4 -7 -19 -10 -33 -17 -80 -29 -114 -51 -149 -14 -22 -25 -48 -25 -58 0
-45 -161 -229 -234 -267 -27 -14 -63 -37 -79 -51 -17 -14 -42 -30 -55 -35 -29
-11 -136 -80 -140 -91 -2 -5 -12 -8 -23 -8 -19 0 -83 -31 -144 -70 -16 -10
-38 -19 -48 -19 -10 -1 -55 -19 -99 -41 -45 -22 -94 -40 -108 -40 -14 0 -30
-4 -35 -8 -20 -18 -137 -62 -163 -62 -15 0 -58 -11 -96 -25 -38 -14 -86 -25
-106 -25 -20 0 -59 -7 -86 -15 -27 -8 -87 -18 -134 -20 -47 -3 -112 -10 -144
-15 -34 -5 -64 -6 -70 -1 -6 5 -54 9 -106 9 -52 0 -108 5 -123 11 -16 6 -56
11 -90 11 -38 0 -83 8 -115 20 -29 11 -70 20 -91 20 -21 0 -67 13 -103 29 -35
16 -81 33 -102 37 -21 3 -46 15 -54 25 -9 11 -25 19 -35 19 -9 0 -20 6 -23 13
-3 8 -18 14 -35 14 -16 0 -42 9 -57 21 -15 12 -55 38 -89 58 -35 20 -63 40
-63 44 0 5 -9 11 -20 15 -23 7 -150 128 -150 143 0 5 10 8 22 4 19 -4 17 -1
-10 27 -35 37 -45 85 -44 224 2 178 77 430 157 525 25 29 28 41 26 94 -2 72
-5 78 -35 78 -43 0 -180 -50 -237 -85 -22 -14 -75 -39 -117 -56 -71 -27 -348
-101 -487 -129 -33 -7 -89 -18 -125 -25 -36 -8 -92 -19 -125 -25 -33 -6 -80
-15 -105 -21 -25 -5 -108 -14 -184 -19 -164 -12 -218 -24 -447 -101 -31 -11
-106 -24 -165 -29 -120 -11 -271 -36 -494 -80 -182 -36 -283 -64 -346 -94 -27
-13 -59 -27 -72 -30 -24 -8 -130 -69 -175 -101 -26 -19 -60 -45 -147 -113 -19
-15 -71 -63 -115 -107 -73 -72 -108 -113 -162 -184 -10 -13 -26 -32 -35 -42
-10 -11 -18 -26 -18 -34 0 -8 -5 -15 -10 -15 -6 0 -15 -10 -21 -22 -5 -13 -28
-50 -49 -83 -22 -33 -49 -80 -61 -105 -11 -24 -24 -47 -28 -50 -4 -3 -32 -52
-61 -110 -29 -58 -58 -116 -66 -130 -27 -52 -49 -104 -141 -345 -18 -49 -38
-98 -43 -107 -6 -10 -10 -27 -10 -38 0 -11 -7 -37 -16 -58 -9 -20 -18 -47 -19
-59 -2 -12 -10 -44 -19 -70 -16 -50 -82 -406 -85 -458 0 -16 -6 -43 -11 -60
-5 -16 -12 -55 -15 -85 -9 -98 -42 -279 -89 -500 -8 -36 -21 -94 -28 -130 -8
-36 -19 -74 -25 -86 -7 -11 -18 -49 -27 -85 -23 -97 -144 -461 -159 -476 -4
-3 -7 -13 -7 -20 0 -15 -44 -135 -61 -165 -5 -10 -9 -20 -9 -23 0 -3 2488 -5
5529 -5 l5528 0 11 72 c5 40 11 93 11 118 1 25 6 83 12 129 5 46 9 109 9 140
-1 31 -1 184 0 341 0 157 -4 330 -9 385 -6 55 -13 163 -16 240 -6 158 -39 384
-74 515 -37 132 -54 189 -67 217 -8 17 -14 34 -14 38 0 13 -103 220 -117 233
-7 7 -13 17 -13 22 0 5 -6 15 -13 22 -7 7 -26 31 -42 52 -39 51 -126 138 -167
167 -18 13 -35 26 -38 29 -3 3 -23 17 -45 31 -22 15 -87 57 -145 95 -178 116
-260 182 -411 333 -158 158 -193 188 -284 244 -60 37 -158 75 -205 81 -14 1
-41 8 -60 14 -19 6 -66 21 -105 32 -38 12 -88 30 -110 40 -22 10 -65 30 -95
44 -30 14 -104 53 -165 86 -60 34 -148 79 -195 101 -198 94 -297 146 -448 233
-62 37 -115 66 -118 66 -3 0 -19 11 -36 25 -16 14 -35 25 -42 25 -7 0 -21 10
-32 22 -31 35 -134 97 -186 113 -26 7 -77 30 -113 51 -59 33 -74 36 -145 38
l-80 2 -45 49 c-25 28 -60 75 -78 105 l-34 55 8 455 c4 250 12 482 18 515 6
33 13 86 16 117 7 68 14 94 54 195 32 82 57 231 72 413 11 142 18 217 24 266
l6 41 39 -10 c33 -9 47 -8 87 9 56 23 85 61 108 141 9 31 40 101 68 155 29 55
60 116 70 135 24 46 40 144 27 157 -7 7 -10 -6 -10 -35 0 -49 -23 -107 -46
-116 -8 -3 -14 -13 -15 -22 0 -10 -4 -7 -10 9 -6 14 -7 46 -4 72 5 37 3 48
-10 55 -15 9 -15 12 -1 39 14 28 26 57 32 79 1 6 5 17 9 26 3 9 0 23 -8 30
-15 16 -16 67 -1 59 5 -3 8 -13 7 -22 -2 -10 1 -18 6 -18 5 0 11 -8 14 -17 3
-10 13 -36 21 -58 l15 -40 1 45 c0 25 4 60 10 79 5 19 12 73 16 120 3 47 14
127 24 176 10 50 17 121 16 158 -1 62 -4 71 -29 93 -44 38 -88 30 -174 -30
-24 -16 -46 -26 -50 -23 -3 4 2 46 12 94 26 123 26 428 1 527 -10 38 -15 80
-11 94 5 22 -14 124 -33 172 -3 8 -6 20 -7 25 -1 6 -8 30 -15 55 -8 25 -15 54
-16 65 -1 11 -8 40 -14 65 -19 71 -21 81 -35 152 -8 37 -19 76 -25 88 -6 11
-8 25 -5 30 3 5 1 19 -5 30 -8 16 -8 25 0 34 8 10 7 15 -5 20 -11 4 -14 13 -9
32 5 18 0 34 -14 54 -26 35 -37 76 -23 84 17 11 14 57 -3 50 -9 -4 -23 12 -42
45 -15 28 -31 51 -35 51 -4 0 -5 8 -2 19 3 10 0 22 -6 25 -6 4 -11 18 -11 32
0 15 -6 24 -15 24 -8 0 -15 7 -15 15 0 12 -8 14 -41 9 -40 -7 -41 -6 -33 17 8
26 8 58 0 67 -3 2 -12 -1 -21 -8 -12 -10 -15 -10 -15 3 0 8 7 20 15 27 19 16
19 30 1 30 -8 0 -17 8 -20 17 -5 12 -9 14 -18 5 -20 -20 -36 -14 -30 13 5 27
-12 35 -22 9 -8 -22 -29 -6 -23 18 3 11 -2 27 -13 38 -10 10 -16 21 -12 24 3
3 0 6 -6 6 -6 0 -14 -4 -17 -10 -12 -20 -23 -9 -29 29 -6 37 -8 40 -44 43 -25
2 -37 8 -37 18 0 9 -8 14 -18 12 -10 -2 -17 3 -17 12 0 10 -9 15 -27 14 -26 0
-67 5 -102 14 -8 2 -17 -7 -20 -20 -10 -40 -25 -29 -26 21 -3 59 -23 84 -54
68 -16 -9 -21 -9 -21 0 0 8 -6 7 -17 -3 -13 -11 -25 -13 -40 -7 -27 10 -28 17
-6 41 25 28 6 35 -22 8 -19 -18 -25 -20 -25 -8 0 9 7 21 15 28 28 23 15 30
-24 14 -55 -22 -93 -15 -109 19 -7 15 -18 27 -24 27 -29 0 -89 37 -94 58 -7
25 -39 46 -54 37 -17 -10 0 -26 21 -20 13 4 19 2 19 -9 0 -19 -23 -33 -28 -18
-2 7 -10 12 -17 12 -7 0 -15 7 -19 15 -3 8 -12 15 -21 15 -8 0 -15 6 -15 14 0
9 -8 12 -25 8 -15 -2 -25 0 -25 7 0 6 -11 11 -24 11 -33 0 -39 23 -15 54 17
22 18 26 5 26 -9 0 -16 -5 -16 -11 0 -5 -4 -7 -10 -4 -6 4 -7 -1 -3 -12 6 -16
5 -16 -9 -5 -9 7 -22 12 -30 11 -7 -1 -20 -1 -28 0 -13 1 -13 2 0 11 11 7 6
10 -22 10 -31 0 -36 3 -33 20 4 22 -5 26 -22 9 -17 -17 -30 -3 -31 32 -1 42
-6 45 -34 17 l-23 -23 -3 28 c-4 31 -9 33 -33 11 -21 -19 -43 -9 -36 17 6 23
-4 31 -23 19 -10 -6 -20 -4 -31 6 -15 13 -20 11 -53 -19 -20 -19 -39 -31 -42
-26 -3 5 -2 14 1 19 9 14 -42 31 -71 24 -13 -3 -24 -12 -24 -20 0 -8 -5 -14
-11 -14 -7 0 -9 10 -5 24 5 22 3 24 -16 21 -13 -3 -28 -12 -34 -20 -13 -17
-34 -20 -34 -5 0 6 -5 10 -11 10 -5 0 -7 -4 -4 -10 3 -5 0 -7 -8 -4 -8 3 -18
1 -22 -5 -8 -14 -25 -14 -25 0 0 12 -29 38 -42 39 -5 0 -8 -13 -8 -28z m1400
-2480 c41 -20 80 -32 106 -32 46 0 60 -11 62 -54 2 -36 -22 -66 -49 -59 -14 4
-19 0 -19 -16 0 -18 -4 -20 -32 -14 -18 3 -40 12 -49 19 -18 16 -45 18 -53 5
-8 -13 -86 -2 -115 16 -17 11 -52 15 -119 16 -94 0 -145 10 -170 35 -7 6 -22
12 -33 12 -24 0 -24 25 0 49 25 25 42 30 131 36 41 3 100 10 130 15 85 13 139
6 210 -28z m-675 -292 c-8 -16 -16 -33 -17 -37 -5 -15 -160 -143 -174 -143
-17 0 -11 38 15 86 21 41 103 113 108 97 7 -19 31 -16 50 7 26 30 36 24 18
-10z"/>
<path d="M4573 9953 c6 -29 4 -31 -26 -31 -71 -2 -112 -16 -115 -40 -2 -13
-12 -28 -23 -35 -10 -6 -19 -20 -19 -29 0 -25 -36 -59 -55 -52 -11 4 -19 -3
-26 -26 -10 -29 -15 -31 -41 -26 -28 5 -30 4 -26 -18 4 -19 0 -26 -19 -30 -12
-4 -23 -13 -23 -21 0 -8 -9 -15 -20 -15 -24 0 -26 -9 -3 -25 22 -16 8 -35 -28
-35 -16 0 -29 -4 -29 -10 0 -5 5 -10 10 -10 7 0 7 -6 0 -20 -6 -11 -16 -17
-25 -14 -9 4 -15 0 -15 -10 0 -9 7 -16 15 -16 8 0 15 -4 15 -10 0 -5 -4 -10
-10 -10 -5 0 -10 -5 -10 -11 0 -6 -9 -24 -20 -39 -11 -16 -19 -39 -18 -52 2
-14 -2 -22 -10 -20 -7 1 -12 -3 -10 -10 2 -14 -20 -86 -32 -103 -4 -5 -6 -23
-5 -40 0 -16 -4 -37 -11 -45 -6 -8 -19 -42 -29 -75 -9 -33 -22 -72 -27 -87 -5
-15 -7 -31 -4 -36 3 -5 -1 -67 -10 -138 -32 -285 -26 -537 22 -829 9 -49 20
-128 26 -175 5 -47 18 -122 28 -167 9 -45 15 -85 12 -88 -3 -3 -17 -5 -31 -6
l-26 -1 25 -7 c28 -7 65 -73 76 -133 4 -21 10 -38 14 -38 9 0 6 294 -4 360 -3
25 -8 61 -11 80 -2 19 -7 46 -10 60 -3 14 -8 54 -10 90 -3 36 -9 80 -13 98 -4
18 -4 109 -1 202 6 141 10 177 27 210 11 22 16 43 11 46 -5 3 -9 12 -9 20 0 8
5 12 10 9 6 -4 10 6 11 22 0 15 2 44 3 63 4 49 -4 80 -20 80 -8 0 -11 -6 -7
-16 12 -32 -19 -9 -33 24 -7 18 -9 30 -4 27 6 -4 10 9 10 30 0 20 4 44 9 53 5
10 12 58 15 107 8 104 13 128 28 119 7 -5 9 -1 5 9 -3 9 1 40 9 69 9 29 20 71
26 93 28 105 80 214 159 333 27 40 49 74 49 76 0 11 57 73 173 188 118 119
141 148 118 148 -5 0 -17 3 -27 7 -15 5 -16 2 -11 -24z"/>
<path d="M4870 8270 c-19 -5 -38 -6 -42 -3 -5 2 -23 -5 -42 -16 -33 -21 -66
-28 -66 -13 -1 22 -18 34 -36 24 -11 -6 -40 -12 -66 -15 -26 -3 -62 -16 -84
-31 -44 -30 -80 -35 -70 -10 13 35 -78 -13 -133 -70 -19 -20 -39 -36 -43 -36
-12 0 -68 -42 -68 -51 0 -3 -10 -28 -22 -55 -12 -27 -21 -53 -20 -57 1 -5 -2
-26 -8 -49 -10 -35 -9 -44 12 -73 12 -19 31 -36 41 -39 16 -4 18 0 13 20 -10
37 26 109 62 128 17 9 33 24 36 34 5 14 17 19 45 20 21 1 54 9 75 17 65 28
418 44 454 21 19 -12 -19 -45 -66 -58 -20 -5 -44 -16 -52 -23 -8 -7 -28 -15
-44 -19 -17 -4 -63 -23 -103 -42 -40 -19 -78 -34 -83 -34 -6 0 -10 -7 -10 -16
0 -9 -9 -18 -20 -21 -11 -3 -20 -9 -20 -14 0 -5 -8 -9 -17 -10 -11 0 -13 -3
-5 -6 9 -3 8 -11 -6 -31 -45 -67 -53 -115 -21 -132 15 -8 17 -15 10 -24 -7 -9
-7 -16 1 -24 9 -9 9 -15 0 -24 -22 -22 -13 -38 20 -38 21 0 40 -8 53 -23 25
-29 72 -50 80 -36 4 5 10 7 15 4 15 -9 91 17 97 33 4 10 8 11 13 2 4 -7 13
-10 19 -6 16 11 -10 46 -34 46 -12 0 -32 5 -46 12 -20 9 -25 18 -24 47 2 65
48 141 84 141 12 0 17 -12 18 -45 2 -33 11 -58 34 -90 36 -50 45 -52 143 -34
130 25 132 26 144 68 7 21 12 57 12 80 0 22 3 41 7 41 5 0 48 -20 98 -44 90
-44 155 -65 155 -49 0 5 -30 27 -68 51 -37 23 -73 51 -80 63 -7 11 -18 17 -24
13 -8 -5 -9 0 -5 17 4 13 7 27 7 32 0 4 7 7 15 7 22 0 18 15 -7 33 -13 8 -20
18 -16 22 9 9 58 -21 76 -47 7 -10 19 -18 27 -18 7 0 15 -4 17 -8 4 -12 106
-82 118 -82 5 0 10 -6 10 -14 0 -8 4 -17 10 -21 17 -11 4 118 -16 153 -16 27
-17 34 -5 41 11 7 10 14 -7 37 -29 42 -63 71 -95 83 -25 10 -28 15 -22 41 6
26 1 36 -44 80 -28 28 -51 56 -51 63 0 28 -28 48 -85 62 -76 19 -199 26 -245
15z"/>
</g>
</svg>
